<svg xmlns="http://www.w3.org/2000/svg" viewBox="0 0 105.26 111.66"><defs><style>.cls-1{fill:#fff;}.cls-2{fill:#555;}.cls-3{fill:#fafafa;}</style></defs><title>Asset 192</title><g id="Layer_2" data-name="Layer 2"><g id="Layer_1-2" data-name="Layer 1"><path class="cls-1" d="M99.4,0H52.49V4.25H47.76V35.92H42.68v4.57H36v4.79H29V50.8h-4.4v4.51H23.2V50l-4.71.11h-.08v-4.8l-4.55-.05h-.41V36.3H0V73.1H4.53v3.81H9.26v4.93H19.71V92.28h3.68v19.38H42.84V97.47h4.91v14.16h19.6V97.73H60.6V87.26h4.77v-5h5.35V75.79h5.05V63.6h9.13V45.71H75.84v-2H94.12V34.9h11.14V4.25H99.4Z"/><path class="cls-2" d="M48,93.07V87.94H42.58v5.12H38.11v4.27H28.39V87.88H24.71V77.43H14.26V72.51H9.53V68.7H5V41.1H9.25V50l5,.06v5L19,54.87v5.24h10.6V55.6H34V50.08h7V45.29h6.65V40.72h5.08V9h4.73V4.8h37.7V9h5.86V30.49H76.34V36.2H89.91v3.08H71.63V50.52h9.08V59.2H76.29V54.8H71.6l0,16.59H66.51v6.44H61.17v5H56.39V93.07Z"/><polygon class="cls-3" points="60.11 18.07 67.19 18.07 67.19 10.98 60.11 10.98 60.11 18.07 60.11 18.07"/><polygon class="cls-2" points="61.69 16.48 65.61 16.48 65.61 12.57 61.69 12.57 61.69 16.48 61.69 16.48"/></g></g></svg>