<svg xmlns="http://www.w3.org/2000/svg" viewBox="0 0 55.71 93.05"><defs><style>.cls-1{fill:#555;}.cls-2{fill:#fff;}</style></defs><title>Asset 162</title><g id="Layer_2" data-name="Layer 2"><g id="Layer_1-2" data-name="Layer 1"><path class="cls-1" d="M19.24,92c-1.52,0-2.08-.54-2.12-2.07,0-.79,0-1.59,0-2.38V52.86a5.7,5.7,0,0,0-.09-1.3c-.11,0-1,0-1.23,0H7.2c-1.91,0-2.49-.56-2.59-2.46a2.08,2.08,0,0,0-.09-.66h0a5.45,5.45,0,0,0-.57,0c-1.24,0-2,0-2.51-.56A2.14,2.14,0,0,1,1,46.1c0-.2,0-.43,0-.7q0-6.65,0-13.3V23.72a3,3,0,0,1,.63-2,1.5,1.5,0,0,0,.13-.84v-.32c.05-1.8.59-2.33,2.4-2.34H7l2.74,0c1.72,0,2.29.57,2.31,2.26,0,.83.08,1.23.44,1.55a2.08,2.08,0,0,1,.57,1.8c0,.08,0,.15,0,.22q0,4,0,8V36.2a5.43,5.43,0,0,0,.1,1.29c.12,0,.95,0,1.22,0h1.35c.33,0,.67,0,1,0a1,1,0,0,0,.27-.05s0-.09,0-.27a6.38,6.38,0,0,0,0-.79V7.14c0-.45,0-.89,0-1.34a1.73,1.73,0,0,1,1.48-1.75c.22,0,.32-.05.32-.51,0-.12,0-.67,0-.67A1.75,1.75,0,0,1,20.86,1l5,0h5.06a1.73,1.73,0,0,1,1.89,1.79v.14c0,.24,0,.49,0,.73S32.88,4,33,4a1.88,1.88,0,0,1,1.75,2.07c0,.51,0,1,0,1.51V49.43a8.18,8.18,0,0,0,.1,1.89c.13,0,1,0,1.57,0h.78a4.78,4.78,0,0,0,.5,0,1.11,1.11,0,0,0,.31-.06s0-.1,0-.31a7.46,7.46,0,0,0,0-.8V16.89c0-2.14.43-2.58,2.6-2.71a1.61,1.61,0,0,0,.52-.08s0-.15,0-.5v-.47c0-2.41.77-2.62,3-2.62h3.45l2.63,0c1.59,0,2.14.58,2.21,2.18,0,.15,0,.3,0,.45s0,.3,0,.45a1.77,1.77,0,0,0,.07.5h0s.13,0,.42.11A2.23,2.23,0,0,1,54.5,15l.21.27V55.44l-.19.26a2.13,2.13,0,0,1-1.73.82h-.11a1.63,1.63,0,0,0-.5.09s0,.13,0,.45c0,.92,0,1.83,0,2.75s0,1.61,0,2.42c0,1.7-.58,2.25-2.28,2.29H46.42a1.63,1.63,0,0,0-.57.07s0,.14-.05.58c0,.25,0,.49,0,.74v.49c0,2.08-.53,2.6-2.58,2.61H36.28a8.32,8.32,0,0,0-1.42.08,8.3,8.3,0,0,0-.07,1.41V89c0,.32,0,.63,0,.95-.06,1.54-.59,2.06-2.11,2.06H19.24Z"/><path class="cls-2" d="M20.86,2h0l5,0h5.06c.6,0,.85.25.87.83,0,.31,0,.61,0,.92A1.2,1.2,0,0,0,32.9,5c.69.08.86.49.87,1.09s0,1,0,1.5q0,20.92,0,41.84c0,2.85,0,2.94,2.71,2.94h.74a6,6,0,0,0,.61,0c.85-.09,1.17-.41,1.25-1.27,0-.39,0-.78,0-1.17q0-16,0-31.92c0-.36,0-.72,0-1.08,0-1.62,0-1.62,1.66-1.72,1.13-.07,1.47-.4,1.5-1.56,0-2.15-.16-2.1,2.19-2.11h3.3l2.62,0c1.06,0,1.18.15,1.22,1.22,0,.31,0,.61,0,.92.06,1,.29,1.32,1.29,1.53a1.23,1.23,0,0,1,.79.41V55.12c-.28.39-.71.38-1.12.42-1.1.1-1.42.42-1.45,1.52,0,1.72,0,3.45,0,5.17,0,1.17-.14,1.28-1.3,1.31H46.4c-1.23,0-1.56.38-1.6,1.62,0,.42,0,.83,0,1.25C44.77,68,44.71,68,43.2,68H36.28c-2.38,0-2.5.12-2.5,2.49q0,9.13,0,18.25c0,.39,0,.78,0,1.17,0,1-.14,1.1-1.11,1.1H19.24c-1,0-1.09-.11-1.12-1.1s0-2.17,0-3.25q0-16.92,0-33.84c0-2.15-.17-2.33-2.32-2.33H7.2c-1.39,0-1.53-.15-1.6-1.52s-.38-1.62-1.67-1.64c-2.33,0-1.91-.1-1.91-2,0-7.22,0-14.45,0-21.67a2,2,0,0,1,.4-1.39,2.7,2.7,0,0,0,.36-1.76c0-1.26.13-1.36,1.41-1.37H7l2.74,0c1.18,0,1.31.13,1.33,1.28a2.8,2.8,0,0,0,.77,2.28c.35.32.23.84.23,1.28,0,4.06,0,8.11,0,12.17,0,2.13.19,2.33,2.31,2.33h1.36c.36,0,.72,0,1.09,0a1.15,1.15,0,0,0,1.22-1.2,10.1,10.1,0,0,0,0-1.17q0-14.42,0-28.84c0-.47,0-.94,0-1.42s.17-.75.65-.83a1.32,1.32,0,0,0,1.15-1.49c0-.22,0-.44,0-.67,0-.6.26-.89.9-.89m0-2A2.75,2.75,0,0,0,18,2.86C18,3,18,3,18,3.14V3.2a2.73,2.73,0,0,0-1.81,2.54c0,.49,0,1,0,1.41V36.53h-2c0-.09,0-.2,0-.32V32q0-4,0-8c0-.05,0-.11,0-.17a3.07,3.07,0,0,0-.9-2.59c-.06-.05-.1-.21-.11-.82,0-2.25-1-3.22-3.3-3.25L7,17.18H4.16c-2.34,0-3.32,1-3.39,3.32,0,.11,0,.22,0,.34s0,.25,0,.35A4,4,0,0,0,0,23.72q0,4.17,0,8.34Q0,38.73,0,45.4c0,.26,0,.48,0,.66A3.07,3.07,0,0,0,.69,48.5a3.74,3.74,0,0,0,2.93.87c.18,2.25,1.2,3.14,3.57,3.16h8.92c0,.1,0,.2,0,.33V87.61c0,.78,0,1.59,0,2.4.05,2.08,1,3,3.12,3H32.66c2,0,3-1,3.11-3,0-.33,0-.66,0-1V70.53c0-.11,0-.29,0-.49h7.42c2.61,0,3.55-1,3.57-3.6,0-.17,0-.33,0-.5s0-.27,0-.4h3.07c2.25,0,3.22-1,3.26-3.27,0-.81,0-1.62,0-2.43s0-1.56,0-2.33a3,3,0,0,0,2.2-1.21l.38-.52V14.91l-.42-.54a3.07,3.07,0,0,0-1.67-1.07s0-.1,0-.15,0-.32,0-.48c-.08-2.13-1.07-3.1-3.19-3.14l-2.65,0H44.32c-2.7,0-4,.54-4,3.6v.09c-2.39.23-3.14,1.13-3.16,3.67,0,.29,0,.58,0,.87V50.19c0,.06,0,.12,0,.18H35.79c0-.28,0-.62,0-.93V7.59c0-.51,0-1,0-1.52a2.86,2.86,0,0,0-2-2.91c0-.09,0-.17,0-.26V2.76A2.73,2.73,0,0,0,30.89,0H25.83L20.89,0h0Z"/></g></g></svg>