<svg xmlns="http://www.w3.org/2000/svg" viewBox="0 0 142.88 83.16"><defs><style>.cls-1{fill:#555;}.cls-2{fill:#fff;}</style></defs><title>Asset 172</title><g id="Layer_2" data-name="Layer 2"><g id="Layer_1-2" data-name="Layer 1"><path class="cls-1" d="M15.84,81.8c-1.33,0-1.86-.51-1.9-1.82,0-.61,0-1.23,0-1.84V51.23c0-.15,0-.54,0-.77-.24,0-.67,0-.84,0H6.17C4.53,50.41,4,49.9,3.9,48.3a2.63,2.63,0,0,0,0-.3l-.32,0c-1.05,0-1.69,0-2.16-.51A1.85,1.85,0,0,1,1,46c0-.15,0-.33,0-.53q0-5.08,0-10.16V28.67a2.48,2.48,0,0,1,.56-1.73,1.59,1.59,0,0,0,0-.49v-.25c0-1.53.56-2,2.12-2h4.5c1.49,0,2,.54,2.05,2,0,.64.06.84.27,1a1.8,1.8,0,0,1,.54,1.59v.16q0,3,0,6.08v3.34a6.93,6.93,0,0,0,0,.77,7.21,7.21,0,0,0,.83,0h1.08c.26,0,.53,0,.79,0h.07v0a4.39,4.39,0,0,0,0-.58V15.84c0-.35,0-.71,0-1.06a1.58,1.58,0,0,1,1.35-1.56l.08,0s0-.07,0-.16l0-.52a1.59,1.59,0,0,1,1.72-1.67h8a1.57,1.57,0,0,1,1.71,1.6v.1c0,.19,0,.38,0,.56v.06A1.7,1.7,0,0,1,28.5,15c0,.39,0,.78,0,1.17v32.4c0,.48,0,1,0,1.24a11.32,11.32,0,0,0,1.16,0h1.07v-.08a5.2,5.2,0,0,0,0-.59V23.38c0-1.78.44-2.21,2.27-2.32l.25,0s0-.11,0-.2v-.36c0-2.05.75-2.25,2.64-2.25h4.88c1.38,0,1.91.54,2,1.9,0,.12,0,.24,0,.36s0,.22,0,.34,0,.16,0,.21l.21,0a2,2,0,0,1,1.22.67l.22.27V53.31l-.2.27a1.93,1.93,0,0,1-1.52.71l-.33,0s0,.1,0,.17c0,.71,0,1.42,0,2.13s0,1.24,0,1.86c0,1.44-.55,2-2,2H37.65l-.29,0c0,.06,0,.14,0,.27s0,.38,0,.58v.37c0,1.75-.51,2.24-2.27,2.24H29.51c-.25,0-.72,0-1,0,0,.24,0,.67,0,.9V79.25c0,.25,0,.49,0,.74-.05,1.32-.57,1.81-1.89,1.81H15.84Z"/><path class="cls-2" d="M17.14,11.85h8c.48,0,.68.2.7.64,0,.24,0,.47,0,.71a.94.94,0,0,0,.88,1c.55.06.69.38.7.84s0,.77,0,1.16q0,16.2,0,32.4c0,2.2,0,2.27,2.17,2.27h.6l.49,0c.68-.07.94-.32,1-1a8.84,8.84,0,0,0,0-.9q0-12.36,0-24.72c0-.28,0-.56,0-.84,0-1.25,0-1.25,1.33-1.33.9-.05,1.18-.31,1.2-1.2,0-1.67-.13-1.63,1.76-1.63h4.75c.85,0,.95.12,1,.94,0,.24,0,.47,0,.71,0,.8.23,1,1,1.18a1,1,0,0,1,.63.32V53c-.23.3-.57.3-.9.32-.88.08-1.14.32-1.16,1.18,0,1.33,0,2.67,0,4,0,.9-.11,1-1,1H37.63c-1,0-1.25.29-1.29,1.25,0,.32,0,.65,0,1,0,1.19-.06,1.25-1.27,1.25H29.51c-1.91,0-2,.09-2,1.93q0,7.07,0,14.13c0,.3,0,.6,0,.9,0,.77-.11.85-.89.85H15.84c-.78,0-.88-.08-.9-.85s0-1.68,0-2.52q0-13.1,0-26.2c0-1.67-.14-1.8-1.86-1.8H6.18c-1.11,0-1.22-.12-1.28-1.17S4.59,47,3.55,47C1.68,47,2,46.9,2,45.45c0-5.59,0-11.19,0-16.78a1.52,1.52,0,0,1,.32-1.08,2,2,0,0,0,.29-1.36c0-1,.1-1.05,1.13-1.06H8.23c1,0,1.05.1,1.06,1a2.12,2.12,0,0,0,.62,1.77c.28.24.19.65.19,1,0,3.14,0,6.28,0,9.42,0,1.65.15,1.8,1.85,1.8h1.09c.29,0,.58,0,.87,0,.65-.05.91-.31,1-.93a7.53,7.53,0,0,0,0-.9q0-11.17,0-22.33c0-.37,0-.73,0-1.1s.14-.58.52-.64a1,1,0,0,0,.93-1.15c0-.17,0-.34,0-.52,0-.47.21-.69.72-.69m0-2a2.59,2.59,0,0,0-2.72,2.61A2.58,2.58,0,0,0,13,14.72c0,.39,0,.76,0,1.12v22.3h-.82V35.06q0-3.08,0-6.16v-.1a2.82,2.82,0,0,0-.8-2.32c0-.08,0-.2,0-.36,0-2-1-2.94-3-3H3.73c-2.09,0-3.05.95-3.11,3,0,.09,0,.18,0,.27s0,.07,0,.1A3.58,3.58,0,0,0,0,28.67q0,3.22,0,6.43,0,5.18,0,10.35c0,.19,0,.35,0,.49a2.79,2.79,0,0,0,.65,2.21A3,3,0,0,0,3,49c.26,1.7,1.25,2.44,3.21,2.45h6.76V78.14c0,.62,0,1.24,0,1.86a2.57,2.57,0,0,0,2.9,2.79H26.61A2.57,2.57,0,0,0,29.5,80c0-.26,0-.52,0-.78V65h5.57c2.29,0,3.24-.95,3.26-3.23q0-.13,0-.25h2.08c2,0,3-1,3-3,0-.63,0-1.26,0-1.89,0-.47,0-.94,0-1.41a2.69,2.69,0,0,0,1.68-1l.4-.53v-32l-.44-.55a2.78,2.78,0,0,0-1.24-.87q0-.08,0-.17a2.64,2.64,0,0,0-2.95-2.86H36c-1.89,0-3.47.23-3.62,2.9-1.85.26-2.53,1.17-2.55,3.25,0,.23,0,.46,0,.69V48.85h-.28c0-.09,0-.18,0-.27V16.18c0-.39,0-.79,0-1.18a2.71,2.71,0,0,0-1.61-2.58,2.55,2.55,0,0,0-2.7-2.56h-8Z"/><path class="cls-1" d="M111.18,82.15c-1.38,0-1.92-.5-2-1.85,0-.29,0-.59,0-.88v-30a7.92,7.92,0,0,0,0-.92,8.5,8.5,0,0,0-1,0h-7.41c-1.65,0-2.23-.56-2.32-2.19a3,3,0,0,0,0-.41,3.24,3.24,0,0,0-.45,0c-1,0-1.68,0-2.15-.53a1.85,1.85,0,0,1-.39-1.49c0-.13,0-.29,0-.47,0-3.39,0-18.17,0-18.17a2.69,2.69,0,0,1,.44-1.62,1.71,1.71,0,0,0,.14-.9v-.32c0-1.38.61-1.92,2-1.95l2.54,0,2.59,0c1.46,0,2,.56,2,2,0,.7,0,1,.33,1.23a1.87,1.87,0,0,1,.55,1.64c0,.06,0,.12,0,.18q0,3.21,0,6.42v3.71a6.38,6.38,0,0,0,0,.88,6.62,6.62,0,0,0,.95,0h1.17c.29,0,.57,0,.85,0l.13,0,0-.11a5.22,5.22,0,0,0,0-.63V11.37c0-.38,0-.76,0-1.14a1.61,1.61,0,0,1,1.4-1.61l.13,0a1.23,1.23,0,0,0,0-.26V8.15a2,2,0,0,1,.77-1.81l.26-.19h10.13l.26.18A2,2,0,0,1,123,8c0,.26,0,.42,0,.52l.39.12a1.63,1.63,0,0,1,1.27,1.51c0,.37,0,.73,0,1.1V46.78a10.29,10.29,0,0,0,0,1.15A10.48,10.48,0,0,0,126,48h.66a4.74,4.74,0,0,0,.51,0l.14,0s0-.06,0-.11a5.44,5.44,0,0,0,0-.68V19.73c0-2.06.32-2.67,2.41-2.7H130a1.37,1.37,0,0,0,0-.16c0-.28,0-.57,0-.85v-.25A1.7,1.7,0,0,1,131.91,14h6.35a1.7,1.7,0,0,1,1.81,1.8v.13c0,.3,0,.6,0,.89a1.53,1.53,0,0,0,0,.18l.2,0a2.06,2.06,0,0,1,1.35.72l.21.27V51.6l-.2.27a2,2,0,0,1-1.58.74l-.42.05a2.32,2.32,0,0,0,0,.25c0,.76,0,1.52,0,2.28s0,1.34,0,2c0,1.51-.55,2-2.1,2.07h-3a1.92,1.92,0,0,0-.31,0,2,2,0,0,0,0,.29c0,.23,0,.46,0,.7s0,.5,0,.76c-.05,1.42-.59,1.93-2,2h-6.7a4.46,4.46,0,0,0-.7,0,4,4,0,0,0,0,.61q0,2.33,0,4.66v5.4c0,2.1,0,4.2,0,6.3,0,1.63-.51,2.13-2.17,2.13H111.18Z"/><path class="cls-2" d="M121.62,7.15c.36.25.34.64.36,1,.06,1,.15,1.18,1.16,1.45a.64.64,0,0,1,.54.63c0,.39,0,.79,0,1.18q0,17.68,0,35.36c0,2.12.06,2.2,2.25,2.2h.67a5.93,5.93,0,0,0,.62,0c.69-.07,1-.34,1-1a9.05,9.05,0,0,0,0-1q0-13.59,0-27.18c0-1.74,0-1.68,1.59-1.71.78,0,1.06-.33,1.12-1.08,0-.39,0-.79,0-1.18,0-.58.34-.75.87-.76h6.32c.57,0,.83.26.83.81,0,.37,0,.74,0,1.11.07.72.29,1,1,1.12a1.12,1.12,0,0,1,.75.35V51.26c-.24.32-.61.32-1,.35-.95.08-1.23.35-1.25,1.26,0,1.43,0,2.87,0,4.3,0,1-.12,1.07-1.12,1.09h-3c-1,0-1.27.33-1.31,1.27,0,.48,0,1,0,1.46,0,.87-.14,1-1.07,1h-6.68c-1.48,0-1.73.24-1.73,1.64,0,2.4,0,4.81,0,7.21,0,3.05,0,6.1,0,9.15,0,1.1-.06,1.14-1.17,1.14H111.18c-.86,0-.94-.08-1-.9,0-.37,0-.74,0-1.11q0-14.87,0-29.74c0-1.83-.14-2-2.05-2h-7.4c-1.13,0-1.27-.15-1.33-1.24s-.32-1.38-1.49-1.38c-1.86,0-1.53-.19-1.53-1.49q0-9.08,0-18.16a1.71,1.71,0,0,1,.27-1A3.08,3.08,0,0,0,97,22.37c0-.85.14-1,1-1l2.52,0,2.58,0c.92,0,1,.12,1.06,1a2.35,2.35,0,0,0,.67,2c.3.26.19.7.2,1.06,0,3.37,0,6.75,0,10.12,0,1.76.17,1.93,2,1.93h1.17c.31,0,.63,0,.94,0a1,1,0,0,0,1-1,8.35,8.35,0,0,0,0-1q0-12,0-24c0-.39,0-.79,0-1.18a.64.64,0,0,1,.56-.69,1.13,1.13,0,0,0,1-1.24c0-.43-.07-.89.36-1.21h9.49m.63-2H111.48l-.53.38a2.89,2.89,0,0,0-1.17,2.29,2.63,2.63,0,0,0-1.56,2.33c0,.41,0,.8,0,1.18V35.46H107V31.95q0-3.27,0-6.54s0-.08,0-.12a2.88,2.88,0,0,0-.85-2.41,5.24,5.24,0,0,1,0-.53c0-2-1-2.93-3-3l-2.61,0-2.55,0a2.67,2.67,0,0,0-3,2.91c0,.11,0,.22,0,.34s0,.33,0,.42a3.68,3.68,0,0,0-.57,2.11q0,3.93,0,7.86,0,5.15,0,10.31c0,.16,0,.3,0,.42A2.81,2.81,0,0,0,95,46a3.22,3.22,0,0,0,2.42.84c.24,1.8,1.27,2.62,3.27,2.63h7.46v30c0,.31,0,.62,0,.93a2.61,2.61,0,0,0,3,2.81h11.35c2.21,0,3.16-.94,3.17-3.13s0-4.15,0-6.23V68.33q0-2.16,0-4.32h6.46c2,0,2.95-1,3-2.92,0-.26,0-.53,0-.79v0h2.38c2.06,0,3-1,3.08-3.05,0-.67,0-1.35,0-2s0-1.1,0-1.64a2.78,2.78,0,0,0,1.83-1.08l.4-.53V17.71l-.42-.54a2.79,2.79,0,0,0-1.39-1c0-.08,0-.16,0-.25v-.15a2.68,2.68,0,0,0-2.8-2.8h-6.38A2.69,2.69,0,0,0,129,15.75v.31c-2.29.23-2.74,1.49-2.74,3.67V47h-.6c0-.07,0-.14,0-.2V11.27c0-.36,0-.77,0-1.2A2.62,2.62,0,0,0,124,7.78a2.87,2.87,0,0,0-1.19-2.26l-.52-.37Z"/><path class="cls-1" d="M62,82.16c-1.45,0-2-.5-2-1.91,0-.32,0-.63,0-.95V47.2a7.56,7.56,0,0,0,0-1,8.28,8.28,0,0,0-1.15-.05H50.8c-1.74,0-2.32-.56-2.41-2.27a2.77,2.77,0,0,0-.06-.5,2.87,2.87,0,0,0-.54,0c-1.08,0-1.77,0-2.25-.55a1.92,1.92,0,0,1-.39-1.54c0-.14,0-.31,0-.5,0-3.63,0-19.43,0-19.43a2.81,2.81,0,0,1,.46-1.69,1.87,1.87,0,0,0,.16-1v-.33c.05-1.45.61-2,2.06-2l2.7,0,2.79,0c1.53,0,2.08.56,2.12,2.05,0,.77.05,1.09.37,1.36a1.94,1.94,0,0,1,.56,1.7c0,.07,0,.13,0,.19q0,3.49,0,7v3.84a5.93,5.93,0,0,0,.05,1,7.19,7.19,0,0,0,1.09.06h1.24c.31,0,.61,0,.92,0l.19,0a1.42,1.42,0,0,0,0-.17,5.52,5.52,0,0,0,0-.68v-26c0-.4,0-.79,0-1.19a1.66,1.66,0,0,1,1.43-1.66.41.41,0,0,0,.17-.05.68.68,0,0,0,.06-.32V3.07a2.1,2.1,0,0,1,.79-1.88L62.67,1H73.46l.26.18a2,2,0,0,1,.8,1.73V3c0,.23,0,.4,0,.5l.46.14a1.68,1.68,0,0,1,1.31,1.56c0,.39,0,.78,0,1.18v38a9.54,9.54,0,0,0,.05,1.29,9.67,9.67,0,0,0,1.33.06h.75a5.14,5.14,0,0,0,.55,0l.21,0s0-.08,0-.17a5.9,5.9,0,0,0,0-.73V15.45c0-2.19.31-2.79,2.51-2.82h.36a1.56,1.56,0,0,0,0-.23c0-.3,0-.6,0-.9V11.2a1.74,1.74,0,0,1,1.92-1.8h6.79a1.75,1.75,0,0,1,1.87,1.86v.17c0,.31,0,.62,0,.93a1.45,1.45,0,0,0,0,.25h0l.26.05a2.12,2.12,0,0,1,1.4.75l.21.27V49.52l-.2.27a2.06,2.06,0,0,1-1.64.76H92.8a2.25,2.25,0,0,0-.39.06,1.84,1.84,0,0,0,0,.32c0,.81,0,1.63,0,2.44s0,1.43,0,2.15c0,1.57-.58,2.11-2.17,2.15H87a1.93,1.93,0,0,0-.39,0,1.88,1.88,0,0,0,0,.36c0,.25,0,.5,0,.75s0,.53,0,.8c-.06,1.47-.61,2-2.12,2H77.23a4.11,4.11,0,0,0-.81.05,3.78,3.78,0,0,0,0,.71q0,2.49,0,5v5.8c0,2.24,0,4.48,0,6.72,0,1.71-.51,2.21-2.25,2.21H62Z"/><path class="cls-2" d="M73.14,2c.39.27.36.68.38,1.07.06,1.12.16,1.26,1.24,1.55a.69.69,0,0,1,.58.68c0,.42,0,.84,0,1.26q0,18.91,0,37.82c0,2.27.06,2.35,2.41,2.35h.72a6.35,6.35,0,0,0,.66,0c.74-.08,1-.36,1.12-1.08a9.7,9.7,0,0,0,0-1.11q0-14.54,0-29.07c0-1.86,0-1.79,1.7-1.82.83,0,1.13-.36,1.2-1.16,0-.42,0-.84,0-1.26,0-.62.36-.8.93-.81h6.76c.61,0,.88.28.89.86,0,.39,0,.79,0,1.19.07.77.31,1,1.1,1.19a1.2,1.2,0,0,1,.8.38V49.18c-.26.35-.65.34-1,.37-1,.09-1.31.37-1.34,1.35,0,1.53,0,3.07,0,4.6,0,1-.12,1.14-1.2,1.16H86.93c-1,0-1.36.35-1.4,1.36,0,.52,0,1,0,1.56,0,.93-.15,1-1.14,1.07H77.23c-1.58,0-1.85.25-1.85,1.76,0,2.57,0,5.14,0,7.71,0,3.26,0,6.53,0,9.79,0,1.17-.06,1.21-1.25,1.21H62c-.92,0-1-.09-1-1,0-.4,0-.79,0-1.19q0-15.91,0-31.82c0-2-.15-2.09-2.19-2.09H50.81c-1.21,0-1.36-.16-1.42-1.33S49,42.3,47.79,42.29c-2,0-1.63-.2-1.64-1.59q0-9.72,0-19.43a1.83,1.83,0,0,1,.28-1.12,3.29,3.29,0,0,0,.35-1.87c0-.91.15-1,1.08-1.05l2.69,0,2.76,0c1,0,1.11.13,1.13,1.07a2.51,2.51,0,0,0,.72,2.1c.32.27.21.75.21,1.14,0,3.61,0,7.22,0,10.83,0,1.88.18,2.06,2.13,2.06h1.25c.33,0,.67,0,1,0a1,1,0,0,0,1.12-1.08,8.91,8.91,0,0,0,0-1q0-12.83,0-25.66c0-.42,0-.84,0-1.26a.68.68,0,0,1,.6-.74,1.2,1.2,0,0,0,1.06-1.33c0-.46-.08-1,.38-1.29H73.14m.63-2H62.34l-.53.38a3,3,0,0,0-1.2,2.43,2.67,2.67,0,0,0-1.67,2.41c0,.44,0,.85,0,1.25v26H57.38V28.51q0-3.49,0-7s0-.09,0-.13a2.94,2.94,0,0,0-.89-2.5,4.49,4.49,0,0,1,0-.64c0-2-1-3-3.1-3l-2.79,0-2.73,0a2.73,2.73,0,0,0-3,3c0,.12,0,.24,0,.36a4.71,4.71,0,0,1,0,.5,3.8,3.8,0,0,0-.6,2.2q0,4.19,0,8.37,0,5.53,0,11.06c0,.17,0,.33,0,.46a2.84,2.84,0,0,0,.67,2.27,3.44,3.44,0,0,0,2.61.85c.22,2,1.25,2.8,3.37,2.81h8.12V79.3c0,.33,0,.66,0,1,.09,2,1.05,2.87,3,2.87H74.12c2.3,0,3.24-.93,3.25-3.21s0-4.46,0-6.7V67.49q0-2.4,0-4.8h7c2,0,3-1,3.1-3,0-.28,0-.56,0-.84v-.17h2.68c2.14,0,3.12-1,3.15-3.13,0-.72,0-1.44,0-2.15s0-1.26,0-1.88a2.88,2.88,0,0,0,2-1.12l.4-.53V13.34l-.42-.54a2.88,2.88,0,0,0-1.52-1c0-.12,0-.24,0-.37v-.16A2.74,2.74,0,0,0,91,8.4H84.14a2.74,2.74,0,0,0-2.91,2.8v.28c0,.06,0,.12,0,.18-2.46.2-2.93,1.47-2.93,3.79V44.74h-.92c0-.13,0-.25,0-.35V6.4c0-.38,0-.82,0-1.27a2.67,2.67,0,0,0-1.82-2.36A2.94,2.94,0,0,0,74.3.37L73.78,0Z"/></g></g></svg>