<svg xmlns="http://www.w3.org/2000/svg" viewBox="0 0 96.72 94.9"><defs><style>.cls-1{fill:#555;}.cls-2{fill:#fff;}</style></defs><title>Asset 152</title><g id="Layer_2" data-name="Layer 2"><g id="Layer_1-2" data-name="Layer 1"><path class="cls-1" d="M59.95,93.9c-1.53,0-2.09-.55-2.13-2.09,0-.8,0-1.61,0-2.41V53.92a5.76,5.76,0,0,0-.1-1.35c-.12,0-1,0-1.25,0H47.79c-1.92,0-2.5-.57-2.6-2.5a2.08,2.08,0,0,0-.1-.69h0a4.66,4.66,0,0,0-.59,0c-1.25,0-2,0-2.52-.57A2.17,2.17,0,0,1,41.56,47c0-.2,0-.44,0-.72q0-6.82,0-13.65V24.17a3.05,3.05,0,0,1,.63-2.06,1.56,1.56,0,0,0,.13-.87v-.32c.05-1.82.59-2.36,2.41-2.37H47.6l2.79,0c1.74,0,2.3.58,2.33,2.29,0,.85.08,1.26.45,1.6a2.11,2.11,0,0,1,.57,1.81c0,.08,0,.15,0,.23q0,4.09,0,8.18v4.25a5.49,5.49,0,0,0,.1,1.33,10.57,10.57,0,0,0,1.24,0h1.36c.34,0,.67,0,1,0a1,1,0,0,0,.28-.05s0-.09,0-.29a6.58,6.58,0,0,0,0-.81V7.28c0-.46,0-.92,0-1.39a1.75,1.75,0,0,1,1.48-1.77c.22,0,.33-.06.33-.54,0-.13,0-.68,0-.68A1.76,1.76,0,0,1,61.58,1l5,0h5.1a1.74,1.74,0,0,1,1.9,1.81V3c0,.25,0,.5,0,.75s.1.35.23.37a1.89,1.89,0,0,1,1.76,2.09s0,1.1,0,1.54V50.42a8.33,8.33,0,0,0,.11,1.95,14.31,14.31,0,0,0,1.63,0h.74a5,5,0,0,0,.51,0,1,1,0,0,0,.32-.07A2.88,2.88,0,0,0,79,52a7.73,7.73,0,0,0,0-.81v-34c0-2.17.43-2.61,2.61-2.75a1.55,1.55,0,0,0,.53-.09,5.12,5.12,0,0,0,0-.52v-.48c0-2.34.64-2.65,3.05-2.65h3.51l2.63,0c1.59,0,2.15.58,2.22,2.2,0,.15,0,.31,0,.46s0,.31,0,.46a1.73,1.73,0,0,0,.07.52h0a4.31,4.31,0,0,0,.43.11,2.24,2.24,0,0,1,1.38.79l.21.27v41l-.19.26a2.14,2.14,0,0,1-1.74.83h-.12a1.61,1.61,0,0,0-.51.1s0,.13,0,.48c0,.94,0,1.88,0,2.82s0,1.63,0,2.45c0,1.72-.58,2.28-2.29,2.32H87.37a1.6,1.6,0,0,0-.58.08h0a4.72,4.72,0,0,0-.06.61c0,.26,0,.51,0,.77v.48c0,2.11-.53,2.63-2.59,2.64h-7a6.63,6.63,0,0,0-1.49.1c0,.12,0,1,0,1.44V90.86c0,.32,0,.64,0,1-.06,1.56-.6,2.08-2.12,2.08H59.95Z"/><path class="cls-2" d="M61.58,2h0l5,0H71.7c.6,0,.86.26.88.84,0,.31,0,.62,0,.93a1.22,1.22,0,0,0,1.11,1.28c.7.08.87.5.88,1.11s0,1,0,1.53q0,21.36,0,42.72c0,2.9,0,3,2.73,3h.75a6,6,0,0,0,.62,0c.85-.09,1.18-.42,1.26-1.3,0-.4,0-.79,0-1.19q0-16.3,0-32.59c0-.37,0-.74,0-1.11,0-1.65,0-1.65,1.68-1.76,1.14-.07,1.48-.41,1.51-1.59,0-2.2-.16-2.15,2.21-2.15h3.33l2.64,0c1.07,0,1.19.16,1.23,1.24,0,.31,0,.62,0,.94.06,1.05.29,1.35,1.3,1.56a1.24,1.24,0,0,1,.8.42V56.22c-.28.4-.71.39-1.13.43-1.11.1-1.43.43-1.46,1.55,0,1.76,0,3.52,0,5.28,0,1.19-.14,1.31-1.31,1.33H87.34c-1.24,0-1.57.39-1.62,1.65,0,.43,0,.85,0,1.28,0,1.57-.08,1.64-1.6,1.65h-7c-2.4,0-2.52.12-2.52,2.54q0,9.32,0,18.64c0,.4,0,.79,0,1.19,0,1-.14,1.12-1.12,1.12H59.94c-1,0-1.1-.11-1.13-1.12s0-2.21,0-3.32q0-17.27,0-34.55c0-2.2-.18-2.38-2.34-2.38H47.8c-1.4,0-1.54-.15-1.61-1.55s-.38-1.66-1.69-1.67c-2.35,0-1.92-.1-1.93-2,0-7.37,0-14.75,0-22.12A2.07,2.07,0,0,1,43,22.75a2.78,2.78,0,0,0,.36-1.8c0-1.29.13-1.39,1.42-1.4h2.87l2.76,0c1.19,0,1.32.13,1.34,1.31a2.87,2.87,0,0,0,.78,2.33c.36.32.23.86.24,1.3,0,4.14,0,8.28,0,12.42,0,2.17.19,2.37,2.33,2.37h1.37c.37,0,.73,0,1.1,0,.82-.07,1.14-.4,1.24-1.23a10.44,10.44,0,0,0,0-1.19q0-14.72,0-29.44c0-.48,0-1,0-1.45s.17-.77.65-.85a1.35,1.35,0,0,0,1.16-1.52c0-.23,0-.45,0-.68,0-.61.26-.9.91-.9m0-2a2.76,2.76,0,0,0-2.91,2.88c0,.09,0,.19,0,.28v.1a2.75,2.75,0,0,0-1.82,2.57c0,.5,0,1,0,1.43V37.12c0,.06,0,.12,0,.18H54.75c0-.11,0-.23,0-.37v-4.3q0-4.07,0-8.13c0-.06,0-.11,0-.17a3.1,3.1,0,0,0-.9-2.6c-.07-.06-.11-.23-.12-.88,0-2.27-1-3.25-3.31-3.28l-2.79,0H44.73c-2.35,0-3.33,1-3.4,3.35,0,.11,0,.23,0,.34s0,.27,0,.38a4.07,4.07,0,0,0-.75,2.56q0,4.24,0,8.49,0,6.82,0,13.64c0,.26,0,.49,0,.68a3.07,3.07,0,0,0,.69,2.46,3.77,3.77,0,0,0,3,.87c.18,2.3,1.2,3.21,3.58,3.22h9c0,.11,0,.23,0,.37V89.4c0,.8,0,1.62,0,2.44.05,2.09,1,3.07,3.13,3.07H73.49c2,0,3-1,3.12-3,0-.33,0-.66,0-1V72c0-.12,0-.33,0-.54h7.51c2.62,0,3.56-1,3.59-3.63,0-.17,0-.34,0-.51s0-.3,0-.45h3.12c2.25,0,3.23-1,3.27-3.3,0-.83,0-1.65,0-2.48s0-1.62,0-2.42a3,3,0,0,0,2.23-1.23l.37-.52V15.2l-.41-.54a3.09,3.09,0,0,0-1.69-1.09c0-.06,0-.13,0-.19s0-.33,0-.49c-.08-2.15-1.07-3.13-3.2-3.16l-2.68,0H85.26c-2.72,0-4,.55-4.06,3.64v.13c-2.42.23-3.17,1.14-3.19,3.71,0,.3,0,.59,0,.89V51.19c0,.08,0,.15,0,.23H76.62c0-.3,0-.66,0-1V7.7c0-.52,0-1,0-1.55a2.88,2.88,0,0,0-2-2.94c0-.1,0-.19,0-.29V2.78A2.74,2.74,0,0,0,71.7,0H66.59l-5,0h0Z"/><path class="cls-1" d="M13.61,93.83c-1.2,0-1.72-.49-1.77-1.69,0-.25,0-.49,0-.74V66.73c0-.12,0-.39,0-.6H5.42c-1.41,0-2-.54-2-2,0-.08,0-.14,0-.18H3.21a2.39,2.39,0,0,1-1.84-.49A1.69,1.69,0,0,1,1,62.11c0-.11,0-.23,0-.38C1,58.89,1,46.8,1,46.8a2.42,2.42,0,0,1,.37-1.41,1.55,1.55,0,0,0,.08-.66v-.26c0-1.24.55-1.75,1.77-1.78l2,0,2.06,0c1.26,0,1.79.54,1.81,1.81,0,.56,0,.75.2.89a1.75,1.75,0,0,1,.49,1.48V47q0,2.71,0,5.43v2.89c0,.25,0,.44,0,.57h1.47l.57,0c0-.15,0-.3,0-.45v-20c0-.31,0-.62,0-.92A1.5,1.5,0,0,1,13.07,33v-.22a1.86,1.86,0,0,1,.67-1.61L14,31h8.11l.27.2a1.81,1.81,0,0,1,.68,1.5c0,.14,0,.24,0,.31l.17,0a1.52,1.52,0,0,1,1.15,1.4c0,.31,0,.62,0,.92V64.57c0,.23,0,.57,0,.79.22,0,.55,0,.75,0H26c0-.16,0-.33,0-.49V42.33c0-1.64.2-2.37,2.1-2.4h0c0-.22,0-.44,0-.65v-.21a1.55,1.55,0,0,1,1.67-1.62h5a1.56,1.56,0,0,1,1.63,1.66v.15c0,.23,0,.46,0,.68v0h0a1.81,1.81,0,0,1,1.19.68l.19.26V68.58l-.19.26a1.78,1.78,0,0,1-1.41.69h-.14s0,0,0,.06c0,.63,0,1.25,0,1.88s0,1.1,0,1.65c0,1.34-.52,1.85-1.85,1.88H31.87s0,.05,0,.09c0,.19,0,.38,0,.57s0,.42,0,.62c0,1.26-.55,1.76-1.81,1.79H24.44c0,.08,0,.19,0,.34,0,1.37,0,8.33,0,8.33q0,2.56,0,5.12c0,1.44-.49,1.93-1.92,1.93h-8.9Z"/><path class="cls-2" d="M21.79,32c.28.21.26.52.28.83,0,.86.12,1,.91,1.19a.52.52,0,0,1,.42.52c0,.32,0,.65,0,1q0,14.53,0,29.06c0,1.74,0,1.81,1.76,1.81h.52a4.44,4.44,0,0,0,.48,0c.54-.06.76-.28.82-.83a7.82,7.82,0,0,0,0-.85q0-11.17,0-22.34c0-1.43,0-1.38,1.25-1.4.61,0,.83-.27.88-.89,0-.32,0-.65,0-1,0-.47.26-.62.68-.62h5a.58.58,0,0,1,.65.66c0,.3,0,.61,0,.91.05.59.22.8.81.92a.86.86,0,0,1,.59.29v27c-.19.27-.48.26-.76.29-.74.07-1,.29-1,1,0,1.18,0,2.36,0,3.53,0,.8-.09.88-.88.89H31.9c-.76,0-1,.27-1,1,0,.4,0,.8,0,1.2,0,.72-.11.81-.84.82H24.78c-1.16,0-1.35.19-1.36,1.35,0,2,0,4,0,5.93,0,2.51,0,5,0,7.52,0,.9,0,.93-.91.93h-8.9c-.67,0-.74-.07-.77-.74,0-.3,0-.61,0-.91q0-12.22,0-24.45c0-1.5-.11-1.61-1.61-1.61H5.42c-.89,0-1-.12-1-1S4.13,63,3.21,63C1.76,63,2,62.8,2,61.74Q2,54.27,2,46.8a1.46,1.46,0,0,1,.21-.86,2.64,2.64,0,0,0,.25-1.44c0-.7.11-.8.79-.81l2,0,2,0c.72,0,.81.1.83.83a2,2,0,0,0,.53,1.61c.23.21.15.57.15.87,0,2.77,0,5.55,0,8.32,0,1.45.13,1.58,1.56,1.58h.92c.25,0,.49,0,.74,0,.55,0,.76-.27.82-.83a7.21,7.21,0,0,0,0-.8q0-9.86,0-19.72c0-.32,0-.65,0-1s.12-.51.44-.57c.56-.1.76-.48.78-1,0-.35-.06-.74.28-1h7.44m.66-2H13.68l-.54.41a2.68,2.68,0,0,0-1,1.94,2.56,2.56,0,0,0-1.24,2.1c0,.33,0,.66,0,1V54.91h-.06V52.39q0-2.69,0-5.39v-.08a2.76,2.76,0,0,0-.67-2.13c0-.1,0-.23,0-.31a2.55,2.55,0,0,0-2.8-2.78l-2.05,0-2,0A2.54,2.54,0,0,0,.47,44.44c0,.09,0,.19,0,.28s0,.19,0,.26A3.44,3.44,0,0,0,0,46.8v6.45q0,4.24,0,8.48c0,.13,0,.24,0,.34a2.66,2.66,0,0,0,.64,2.09,2.67,2.67,0,0,0,1.82.77c.3,1.45,1.26,2.17,2.94,2.18h5.42V91.39c0,.26,0,.52,0,.78a2.49,2.49,0,0,0,2.76,2.65h8.9c2,0,2.91-.93,2.91-2.93q0-2.57,0-5.13V82.31q0-1.61,0-3.22h4.64a2.55,2.55,0,0,0,2.79-2.75c0-.11,0-.22,0-.33h1.45a2.56,2.56,0,0,0,2.83-2.86c0-.56,0-1.11,0-1.67,0-.36,0-.72,0-1.08a2.55,2.55,0,0,0,1.38-1l.37-.52V40.58L38.5,40a2.57,2.57,0,0,0-1-.83v-.11a2.55,2.55,0,0,0-2.62-2.66h-5A2.56,2.56,0,0,0,27.19,39a2.34,2.34,0,0,0-1.76,1.13V35.38c0-.3,0-.64,0-1A2.49,2.49,0,0,0,24,32.29,2.65,2.65,0,0,0,23,30.39L22.45,30Z"/></g></g></svg>