<?xml version="1.0" encoding="utf-8"?>
<!-- Generator: Adobe Illustrator 20.0.0, SVG Export Plug-In . SVG Version: 6.00 Build 0)  -->
<svg version="1.1" id="Layer_1" xmlns="http://www.w3.org/2000/svg" xmlns:xlink="http://www.w3.org/1999/xlink" x="0px" y="0px"
	 viewBox="0 0 4804.3 34.6" style="enable-background:new 0 0 4804.3 34.6;" xml:space="preserve">
<style type="text/css">
	.st0{fill:none;stroke:#555555;stroke-width:1.5;stroke-miterlimit:10;}
	.st1{fill:none;stroke:#555555;stroke-width:3;stroke-miterlimit:10;}
	.st2{fill:none;}
	.st3{fill:#555555;}
</style>
<title>path_1</title>
<g id="Layer_2">
	<g id="Layer_1-2">
		<path class="st0" d="M730.9,4.8v1.5h3.3v2.6h4.5v2.6h39V8.6h4.5l0.1-3h4.4c0-0.8,0-0.1,0-0.8"/>
		<path class="st0" d="M2206.7,4v2.2h2.1v1.5h2.8v1.5h24.4V7.5h2.8l0-1.7h2.8V4.1"/>
		<path class="st0" d="M2790.9,4v2.3h1.9v1.6h2.6v1.5h22.4V7.7h2.6V5.9h2.6c0-0.5,0-1,0-1.5c1.6,0,3.3,0,4.9,0c0-0.2,0-0.4,0-0.6
			c0.4,0,0.7,0,1.1,0c0-0.4,0-0.7,0-1.1c0.5,0,1,0,1.5,0c0-0.4,0-0.7,0-1.1c4.4,0,8.7,0,13.1,0c0,0.4,0,0.8,0,1.2c0.5,0,1,0,1.5,0
			c0,0.4,0,0.9,0,1.3c0.5,0,1,0,1.5,0c0,0.5,0,1,0,1.5"/>
		<path class="st0" d="M4153.6,4.8h390.9"/>
		<path class="st0" d="M4128.7,4.8"/>
		<path class="st0" d="M2846.6,4.8h1282.1"/>
		<path class="st0" d="M2328.6,4.8h462.3"/>
		<path class="st0" d="M2241.5,4.8h50.1"/>
		<path class="st0" d="M2206.7,4.8"/>
		<path class="st0" d="M1501.1,4.8h705.6"/>
		<path class="st0" d="M1473.5,4.8"/>
		<path class="st0" d="M1439.5,4.8h34"/>
		<path class="st0" d="M1461.1,4.8"/>
		<path class="st0" d="M786.7,4.8h615.2"/>
		<path class="st0" d="M0,4.8h730.9"/>
		<path class="st0" d="M138.7,18.4"/>
		<path class="st0" d="M4128.7,4.8h1.7c0,0.8,0,1.7,0,2.5h2.1v2h18.1V7h2.1c0-0.8,0-1.5,0-2.2h2.3h-2.8"/>
		<path class="st1" d="M2790.9,3.6"/>
		<path class="st0" d="M2291.7,4.5v2.4h2.2V8h2.9v1.1h25.9V7.9h3l0-1.3h2.9c0-0.3,0-1.7,0-2.1"/>
		<path class="st0" d="M1401.8,4.3v1.4h2.2v1.8h3v1.8h26.4v-2h3l0-2.1h3V4.1"/>
		<path class="st0" d="M1501.1,5.2V3.3h-1.6V2h-2.2V0.8h-19.3v1.4h-2.2v1.5h-2.2c0,0.4,0,1.2,0,1.6"/>
		<line class="st2" x1="0" y1="15.2" x2="2" y2="15.2"/>
		<rect x="25.3" y="15.8" class="st3" width="1.2" height="1.2"/>
		<rect x="28.8" y="12.3" class="st3" width="1.2" height="1.2"/>
		<rect x="31" y="13.4" class="st3" width="1.1" height="1.1"/>
		<rect x="37.9" y="12.3" class="st3" width="3.5" height="1.2"/>
		<rect x="58.7" y="13.4" class="st3" width="3.4" height="1.1"/>
		<rect x="69.2" y="15.8" class="st3" width="2.1" height="1.2"/>
		<line class="st2" x1="1057.3" y1="13.9" x2="1059.3" y2="13.9"/>
		<rect x="1082.6" y="14.4" class="st3" width="1.2" height="1.2"/>
		<rect x="1086" y="10.9" class="st3" width="1.2" height="1.2"/>
		<rect x="1088.3" y="12.1" class="st3" width="1.1" height="1.1"/>
		<rect x="1095.2" y="10.9" class="st3" width="3.5" height="1.2"/>
		<rect x="1116" y="12.1" class="st3" width="3.4" height="1.1"/>
		<rect x="1126.5" y="14.4" class="st3" width="2.1" height="1.2"/>
		<rect x="93.4" y="12.2" class="st3" width="1.1" height="1.1"/>
		<rect x="98" y="12.2" class="st3" width="2.4" height="1.1"/>
		<rect x="114.2" y="12.2" class="st3" width="3.3" height="1.1"/>
		<rect x="124.7" y="14.7" class="st3" width="1.1" height="1.1"/>
		<rect x="128.1" y="11.1" class="st3" width="4.4" height="1.1"/>
		<rect x="143" y="15.8" class="st3" width="1.2" height="1.2"/>
		<rect x="157" y="15.8" class="st3" width="4.5" height="1.2"/>
		<rect x="164" y="12.2" class="st3" width="4.5" height="1.1"/>
		<rect x="172.9" y="15.8" class="st3" width="2.4" height="1.2"/>
		<rect x="204.3" y="14.6" class="st3" width="1.2" height="1.2"/>
		<rect x="212.5" y="15.8" class="st3" width="4.4" height="1.2"/>
		<rect x="220.5" y="11.1" class="st3" width="3.3" height="1.1"/>
		<rect x="237.8" y="14.6" class="st3" width="2.3" height="1.2"/>
		<rect x="255.1" y="12.2" class="st3" width="1.1" height="1.1"/>
		<rect x="260.8" y="14.6" class="st3" width="4.6" height="1.2"/>
		<line class="st2" x1="502.1" y1="15.3" x2="500" y2="15.3"/>
		<rect x="475.6" y="15.8" class="st3" width="1.2" height="1.2"/>
		<rect x="472.1" y="12.3" class="st3" width="1.2" height="1.2"/>
		<rect x="470" y="13.5" class="st3" width="1.1" height="1.1"/>
		<rect x="460.6" y="12.3" class="st3" width="3.5" height="1.2"/>
		<rect x="439.9" y="13.5" class="st3" width="3.4" height="1.1"/>
		<rect x="430.7" y="15.8" class="st3" width="2.1" height="1.2"/>
		<rect x="407.5" y="12.2" class="st3" width="1.1" height="1.1"/>
		<rect x="401.7" y="12.2" class="st3" width="2.4" height="1.1"/>
		<rect x="384.6" y="12.2" class="st3" width="3.4" height="1.1"/>
		<rect x="376.3" y="14.7" class="st3" width="1.1" height="1.1"/>
		<rect x="369.5" y="11.1" class="st3" width="4.4" height="1.1"/>
		<rect x="357.9" y="15.8" class="st3" width="1.2" height="1.2"/>
		<rect x="340.6" y="15.8" class="st3" width="4.5" height="1.2"/>
		<rect x="333.6" y="12.2" class="st3" width="4.5" height="1.1"/>
		<rect x="326.7" y="15.8" class="st3" width="2.4" height="1.2"/>
		<rect x="296.6" y="14.6" class="st3" width="1.2" height="1.2"/>
		<rect x="285.1" y="15.8" class="st3" width="4.4" height="1.2"/>
		<rect x="278.3" y="11.1" class="st3" width="3.3" height="1.1"/>
		<rect x="541.1" y="12.1" class="st3" width="1.1" height="1.1"/>
		<rect x="544.6" y="15.7" class="st3" width="4.4" height="1.1"/>
		<rect x="559.5" y="11" class="st3" width="1.2" height="1.2"/>
		<rect x="573.4" y="11" class="st3" width="4.5" height="1.2"/>
		<rect x="580.5" y="14.6" class="st3" width="4.5" height="1.1"/>
		<rect x="589.4" y="11" class="st3" width="2.4" height="1.2"/>
		<rect x="620.8" y="12.1" class="st3" width="1.2" height="1.2"/>
		<rect x="629" y="11" class="st3" width="4.4" height="1.2"/>
		<rect x="637" y="15.7" class="st3" width="3.3" height="1.1"/>
		<rect x="654.3" y="12.1" class="st3" width="2.3" height="1.2"/>
		<rect x="671.6" y="14.6" class="st3" width="1.1" height="1.1"/>
		<rect x="677.3" y="12.1" class="st3" width="4.6" height="1.2"/>
		<rect x="793.6" y="11.8" class="st3" width="1.1" height="1.1"/>
		<rect x="797.1" y="15.4" class="st3" width="4.4" height="1.1"/>
		<rect x="812" y="10.7" class="st3" width="1.2" height="1.2"/>
		<rect x="825.9" y="10.7" class="st3" width="4.5" height="1.2"/>
		<rect x="832.9" y="14.3" class="st3" width="4.5" height="1.1"/>
		<rect x="841.9" y="10.7" class="st3" width="2.4" height="1.2"/>
		<rect x="873.3" y="11.8" class="st3" width="1.2" height="1.2"/>
		<rect x="881.5" y="10.7" class="st3" width="4.4" height="1.2"/>
		<rect x="889.5" y="15.4" class="st3" width="3.3" height="1.1"/>
		<rect x="906.7" y="11.8" class="st3" width="2.3" height="1.2"/>
		<rect x="924.1" y="14.3" class="st3" width="1.1" height="1.1"/>
		<rect x="929.8" y="11.8" class="st3" width="4.6" height="1.2"/>
		<rect x="942" y="11.6" class="st3" width="1.2" height="1.2"/>
		<rect x="950.3" y="10.4" class="st3" width="4.4" height="1.2"/>
		<rect x="958.2" y="15.1" class="st3" width="3.3" height="1.1"/>
		<rect x="975.5" y="11.6" class="st3" width="2.3" height="1.2"/>
		<rect x="992.9" y="14" class="st3" width="1.1" height="1.1"/>
		<rect x="998.6" y="11.6" class="st3" width="4.6" height="1.2"/>
		<rect x="1010.8" y="11.3" class="st3" width="1.2" height="1.2"/>
		<rect x="1019.1" y="10.1" class="st3" width="4.4" height="1.2"/>
		<rect x="1027" y="14.9" class="st3" width="3.3" height="1.1"/>
		<rect x="1044.3" y="11.3" class="st3" width="2.3" height="1.2"/>
		<rect x="1061.6" y="13.7" class="st3" width="1.1" height="1.1"/>
		<rect x="1067.3" y="11.3" class="st3" width="4.6" height="1.2"/>
		<line class="st2" x1="1154.6" y1="13.4" x2="1156.7" y2="13.4"/>
		<rect x="1179.9" y="13.9" class="st3" width="1.2" height="1.2"/>
		<rect x="1183.4" y="10.4" class="st3" width="1.2" height="1.2"/>
		<rect x="1185.6" y="11.6" class="st3" width="1.1" height="1.1"/>
		<rect x="1192.5" y="10.4" class="st3" width="3.5" height="1.2"/>
		<rect x="1213.3" y="11.6" class="st3" width="3.4" height="1.1"/>
		<rect x="1223.8" y="13.9" class="st3" width="2.1" height="1.2"/>
		<rect x="1141.6" y="10.8" class="st3" width="2.3" height="1.2"/>
		<rect x="1159" y="13.2" class="st3" width="1.1" height="1.1"/>
		<rect x="1164.7" y="10.8" class="st3" width="4.6" height="1.2"/>
		<line class="st2" x1="1251.9" y1="12.9" x2="1254" y2="12.9"/>
		<rect x="1277.3" y="13.4" class="st3" width="1.2" height="1.2"/>
		<rect x="1280.7" y="9.9" class="st3" width="1.2" height="1.2"/>
		<rect x="1283" y="11.1" class="st3" width="1.1" height="1.1"/>
		<rect x="1289.9" y="9.9" class="st3" width="3.5" height="1.2"/>
		<rect x="1310.7" y="11.1" class="st3" width="3.4" height="1.1"/>
		<rect x="1321.2" y="13.4" class="st3" width="2.1" height="1.2"/>
		<rect x="1239" y="10.3" class="st3" width="2.3" height="1.2"/>
		<rect x="1256.3" y="12.7" class="st3" width="1.1" height="1.1"/>
		<rect x="1262" y="10.3" class="st3" width="4.6" height="1.2"/>
		<line class="st2" x1="1349.3" y1="12.4" x2="1351.3" y2="12.4"/>
		<rect x="1374.6" y="12.9" class="st3" width="1.2" height="1.2"/>
		<rect x="1378" y="9.4" class="st3" width="1.2" height="1.2"/>
		<rect x="1380.3" y="10.6" class="st3" width="1.1" height="1.1"/>
		<rect x="1387.2" y="9.4" class="st3" width="3.5" height="1.2"/>
		<rect x="1336.3" y="9.8" class="st3" width="2.3" height="1.2"/>
		<rect x="1353.6" y="12.2" class="st3" width="1.1" height="1.1"/>
		<rect x="1359.3" y="9.8" class="st3" width="4.6" height="1.2"/>
		<rect x="1439.5" y="10.7" class="st3" width="3.4" height="1.1"/>
		<rect x="1450" y="13" class="st3" width="2.1" height="1.2"/>
		<line class="st2" x1="1478.1" y1="12" x2="1480.1" y2="12"/>
		<rect x="1503.4" y="12.5" class="st3" width="1.2" height="1.2"/>
		<rect x="1506.9" y="9" class="st3" width="1.2" height="1.2"/>
		<rect x="1509.1" y="10.2" class="st3" width="1.1" height="1.1"/>
		<rect x="1516" y="9" class="st3" width="3.5" height="1.2"/>
		<rect x="1536.8" y="10.2" class="st3" width="3.4" height="1.1"/>
		<rect x="1547.3" y="12.5" class="st3" width="2.1" height="1.2"/>
		<rect x="1465.1" y="9.4" class="st3" width="2.3" height="1.2"/>
		<rect x="1482.5" y="11.9" class="st3" width="1.1" height="1.1"/>
		<rect x="1488.2" y="9.4" class="st3" width="4.6" height="1.2"/>
		<line class="st2" x1="1575.4" y1="11.5" x2="1577.5" y2="11.5"/>
		<rect x="1600.8" y="12" class="st3" width="1.2" height="1.2"/>
		<rect x="1604.2" y="8.5" class="st3" width="1.2" height="1.2"/>
		<rect x="1606.4" y="9.7" class="st3" width="1.1" height="1.1"/>
		<rect x="1562.5" y="8.9" class="st3" width="2.3" height="1.2"/>
		<rect x="1579.8" y="11.4" class="st3" width="1.1" height="1.1"/>
		<rect x="1585.5" y="8.9" class="st3" width="4.6" height="1.2"/>
		<rect x="1782.1" y="10.1" class="st3" width="3.4" height="1.1"/>
		<rect x="1772.9" y="12.4" class="st3" width="2.1" height="1.2"/>
		<line class="st2" x1="1744.8" y1="11.4" x2="1746.9" y2="11.4"/>
		<rect x="1720.4" y="11.9" class="st3" width="1.2" height="1.2"/>
		<rect x="1717" y="8.4" class="st3" width="1.2" height="1.2"/>
		<rect x="1714.8" y="9.6" class="st3" width="1.1" height="1.1"/>
		<rect x="1705.4" y="8.4" class="st3" width="3.5" height="1.2"/>
		<rect x="1684.7" y="9.6" class="st3" width="3.4" height="1.1"/>
		<rect x="1675.5" y="11.9" class="st3" width="2.1" height="1.2"/>
		<rect x="1757.6" y="8.8" class="st3" width="2.3" height="1.2"/>
		<rect x="1741.4" y="11.2" class="st3" width="1.1" height="1.1"/>
		<rect x="1732.2" y="8.8" class="st3" width="4.6" height="1.2"/>
		<rect x="1873" y="10.5" class="st3" width="3.4" height="1.1"/>
		<rect x="1863.8" y="12.8" class="st3" width="2.1" height="1.2"/>
		<line class="st2" x1="1835.8" y1="11.8" x2="1837.8" y2="11.8"/>
		<rect x="1811.3" y="12.3" class="st3" width="1.2" height="1.2"/>
		<rect x="1807.9" y="8.8" class="st3" width="1.2" height="1.2"/>
		<rect x="1805.7" y="10" class="st3" width="1.1" height="1.1"/>
		<rect x="1796.4" y="8.8" class="st3" width="3.5" height="1.2"/>
		<rect x="1848.5" y="9.2" class="st3" width="2.3" height="1.2"/>
		<rect x="1832.3" y="11.7" class="st3" width="1.1" height="1.1"/>
		<rect x="1823.2" y="9.2" class="st3" width="4.6" height="1.2"/>
		<rect x="1963.9" y="10.9" class="st3" width="3.4" height="1.1"/>
		<rect x="1954.7" y="13.2" class="st3" width="2.1" height="1.2"/>
		<line class="st2" x1="1926.7" y1="12.2" x2="1928.7" y2="12.2"/>
		<rect x="1902.2" y="12.7" class="st3" width="1.2" height="1.2"/>
		<rect x="1898.8" y="9.2" class="st3" width="1.2" height="1.2"/>
		<rect x="1896.7" y="10.4" class="st3" width="1.1" height="1.1"/>
		<rect x="1887.3" y="9.2" class="st3" width="3.5" height="1.2"/>
		<rect x="1939.4" y="9.6" class="st3" width="2.3" height="1.2"/>
		<rect x="1923.2" y="12.1" class="st3" width="1.1" height="1.1"/>
		<rect x="1914.1" y="9.6" class="st3" width="4.6" height="1.2"/>
		<rect x="2259.8" y="8.7" class="st3" width="3.4" height="1.1"/>
		<rect x="2250.6" y="11.1" class="st3" width="2.1" height="1.2"/>
		<rect x="1993.2" y="13.1" class="st3" width="1.2" height="1.2"/>
		<rect x="1989.7" y="9.6" class="st3" width="1.2" height="1.2"/>
		<rect x="1987.6" y="10.8" class="st3" width="1.1" height="1.1"/>
		<rect x="1978.2" y="9.6" class="st3" width="3.5" height="1.2"/>
		<rect x="2005" y="10" class="st3" width="4.6" height="1.2"/>
		<rect x="2278.1" y="7.9" class="st3" width="3.4" height="1.1"/>
		<rect x="2268.9" y="10.2" class="st3" width="2.1" height="1.2"/>
		<rect x="2164.1" y="10.9" class="st3" width="3.4" height="1.1"/>
		<rect x="2154.9" y="13.2" class="st3" width="2.1" height="1.2"/>
		<line class="st2" x1="2126.8" y1="12.2" x2="2128.9" y2="12.2"/>
		<rect x="2102.4" y="12.7" class="st3" width="1.2" height="1.2"/>
		<rect x="2099" y="9.2" class="st3" width="1.2" height="1.2"/>
		<rect x="2096.8" y="10.4" class="st3" width="1.1" height="1.1"/>
		<rect x="2087.5" y="9.2" class="st3" width="3.5" height="1.2"/>
		<rect x="2139.6" y="9.6" class="st3" width="2.3" height="1.2"/>
		<rect x="2182.5" y="13.1" class="st3" width="2.1" height="1.2"/>
		<rect x="2197.6" y="9.4" class="st3" width="2.3" height="1.2"/>
		<rect x="2123.4" y="12" class="st3" width="1.1" height="1.1"/>
		<rect x="2114.2" y="9.6" class="st3" width="4.6" height="1.2"/>
		<rect x="2047.2" y="11.9" class="st3" width="1.2" height="1.2"/>
		<rect x="2043.8" y="8.4" class="st3" width="1.2" height="1.2"/>
		<rect x="2041.6" y="9.6" class="st3" width="1.1" height="1.1"/>
		<rect x="2032.2" y="8.4" class="st3" width="3.5" height="1.2"/>
		<rect x="2068.2" y="11.2" class="st3" width="1.1" height="1.1"/>
		<rect x="2059" y="8.8" class="st3" width="4.6" height="1.2"/>
		<line class="st2" x1="1647.5" y1="10.9" x2="1649.6" y2="10.9"/>
		<rect x="1623.1" y="11.4" class="st3" width="1.2" height="1.2"/>
		<rect x="1619.6" y="7.9" class="st3" width="1.2" height="1.2"/>
		<rect x="1617.5" y="9.1" class="st3" width="1.1" height="1.1"/>
		<rect x="1660.3" y="8.3" class="st3" width="2.3" height="1.2"/>
		<rect x="1644" y="10.7" class="st3" width="1.1" height="1.1"/>
		<rect x="1634.9" y="8.3" class="st3" width="4.6" height="1.2"/>
		<line class="st2" x1="2123.9" y1="23.6" x2="2125.7" y2="23.6"/>
		<rect x="2431.5" y="11.4" class="st3" width="2.1" height="1.2"/>
		<line class="st2" x1="2403.5" y1="10.4" x2="2405.5" y2="10.4"/>
		<rect x="2379" y="10.9" class="st3" width="1.2" height="1.2"/>
		<rect x="2375.6" y="7.4" class="st3" width="1.2" height="1.2"/>
		<rect x="2373.5" y="8.6" class="st3" width="1.1" height="1.1"/>
		<rect x="2364.1" y="7.4" class="st3" width="3.5" height="1.2"/>
		<rect x="2416.3" y="7.8" class="st3" width="2.3" height="1.2"/>
		<rect x="2400" y="10.2" class="st3" width="1.1" height="1.1"/>
		<rect x="2390.9" y="7.8" class="st3" width="4.6" height="1.2"/>
		<rect x="2513.4" y="12" class="st3" width="2.1" height="1.2"/>
		<line class="st2" x1="2485.4" y1="10.9" x2="2487.4" y2="10.9"/>
		<rect x="2460.9" y="11.5" class="st3" width="1.2" height="1.2"/>
		<rect x="2457.5" y="8" class="st3" width="1.2" height="1.2"/>
		<rect x="2455.3" y="9.1" class="st3" width="1.1" height="1.1"/>
		<rect x="2446" y="8" class="st3" width="3.5" height="1.2"/>
		<rect x="2498.1" y="8.4" class="st3" width="2.3" height="1.2"/>
		<rect x="2481.9" y="10.8" class="st3" width="1.1" height="1.1"/>
		<rect x="2472.8" y="8.4" class="st3" width="4.6" height="1.2"/>
		<rect x="2563.6" y="8.5" class="st3" width="2.1" height="1.2"/>
		<line class="st2" x1="2537.6" y1="10.7" x2="2535.5" y2="10.7"/>
		<rect x="2548.3" y="12.1" class="st3" width="2.3" height="1.2"/>
		<rect x="2532.1" y="9.7" class="st3" width="1.1" height="1.1"/>
		<rect x="2522.9" y="12.1" class="st3" width="4.6" height="1.2"/>
		<rect x="2587.6" y="13.1" class="st3" width="2.1" height="1.2"/>
		<rect x="2572.3" y="9.5" class="st3" width="2.3" height="1.2"/>
		<rect x="2637.8" y="9.6" class="st3" width="2.1" height="1.2"/>
		<line class="st2" x1="2611.8" y1="11.8" x2="2609.7" y2="11.8"/>
		<rect x="2622.5" y="13.2" class="st3" width="2.3" height="1.2"/>
		<rect x="2606.3" y="10.8" class="st3" width="1.1" height="1.1"/>
		<rect x="2597.1" y="13.2" class="st3" width="4.6" height="1.2"/>
		<rect x="2647.9" y="11.3" class="st3" width="2.1" height="1.2"/>
		<rect x="2698.1" y="7.8" class="st3" width="2.1" height="1.2"/>
		<line class="st2" x1="2672.1" y1="10" x2="2670.1" y2="10"/>
		<rect x="2682.8" y="11.5" class="st3" width="2.3" height="1.2"/>
		<rect x="2666.6" y="9" class="st3" width="1.1" height="1.1"/>
		<rect x="2657.4" y="11.5" class="st3" width="4.6" height="1.2"/>
		<rect x="2722.1" y="12.4" class="st3" width="2.1" height="1.2"/>
		<rect x="2706.9" y="8.8" class="st3" width="2.3" height="1.2"/>
		<rect x="2772.3" y="8.9" class="st3" width="2.1" height="1.2"/>
		<line class="st2" x1="2746.3" y1="11.2" x2="2744.2" y2="11.2"/>
		<rect x="2757" y="12.6" class="st3" width="2.3" height="1.2"/>
		<rect x="2740.8" y="10.2" class="st3" width="1.1" height="1.1"/>
		<rect x="2731.6" y="12.6" class="st3" width="4.6" height="1.2"/>
		<rect x="2782.5" y="10.7" class="st3" width="2.1" height="1.2"/>
		<rect x="2832.6" y="7.2" class="st3" width="2.1" height="1.2"/>
		<line class="st2" x1="2806.6" y1="9.4" x2="2804.6" y2="9.4"/>
		<rect x="2856.7" y="11.8" class="st3" width="2.1" height="1.2"/>
		<rect x="2841.4" y="8.1" class="st3" width="2.3" height="1.2"/>
		<rect x="2906.8" y="8.3" class="st3" width="2.1" height="1.2"/>
		<line class="st2" x1="2880.8" y1="10.5" x2="2878.8" y2="10.5"/>
		<rect x="2891.5" y="11.9" class="st3" width="2.3" height="1.2"/>
		<rect x="2875.3" y="9.5" class="st3" width="1.1" height="1.1"/>
		<rect x="2866.2" y="11.9" class="st3" width="4.6" height="1.2"/>
		<rect x="2917" y="10" class="st3" width="2.1" height="1.2"/>
		<rect x="2967.1" y="6.5" class="st3" width="2.1" height="1.2"/>
		<line class="st2" x1="2941.1" y1="8.7" x2="2939.1" y2="8.7"/>
		<rect x="2951.9" y="10.1" class="st3" width="2.3" height="1.2"/>
		<rect x="2935.6" y="7.7" class="st3" width="1.1" height="1.1"/>
		<rect x="2926.5" y="10.1" class="st3" width="4.6" height="1.2"/>
		<rect x="2991.2" y="11.1" class="st3" width="2.1" height="1.2"/>
		<rect x="2975.9" y="7.5" class="st3" width="2.3" height="1.2"/>
		<rect x="3041.3" y="7.6" class="st3" width="2.1" height="1.2"/>
		<line class="st2" x1="3015.3" y1="9.8" x2="3013.3" y2="9.8"/>
		<rect x="3026.1" y="11.2" class="st3" width="2.3" height="1.2"/>
		<rect x="3009.8" y="8.8" class="st3" width="1.1" height="1.1"/>
		<rect x="3000.7" y="11.2" class="st3" width="4.6" height="1.2"/>
		<rect x="3051.5" y="10.3" class="st3" width="2.1" height="1.2"/>
		<rect x="3101.7" y="6.8" class="st3" width="2.1" height="1.2"/>
		<line class="st2" x1="3075.7" y1="9" x2="3073.6" y2="9"/>
		<rect x="3086.4" y="10.5" class="st3" width="2.3" height="1.2"/>
		<rect x="3070.2" y="8.1" class="st3" width="1.1" height="1.1"/>
		<rect x="3061" y="10.5" class="st3" width="4.6" height="1.2"/>
		<rect x="3125.7" y="11.4" class="st3" width="2.1" height="1.2"/>
		<rect x="3110.4" y="7.8" class="st3" width="2.3" height="1.2"/>
		<rect x="3175.9" y="7" class="st3" width="2.1" height="1.2"/>
		<line class="st2" x1="3149.9" y1="9.2" x2="3147.8" y2="9.2"/>
		<rect x="3160.6" y="10.6" class="st3" width="2.3" height="1.2"/>
		<rect x="3144.4" y="8.2" class="st3" width="1.1" height="1.1"/>
		<rect x="3135.2" y="10.6" class="st3" width="4.6" height="1.2"/>
		<rect x="3186" y="8.7" class="st3" width="2.1" height="1.2"/>
		<line class="st2" x1="3210.2" y1="7.4" x2="3208.1" y2="7.4"/>
		<rect x="3220.9" y="8.8" class="st3" width="2.3" height="1.2"/>
		<rect x="3204.7" y="6.4" class="st3" width="1.1" height="1.1"/>
		<rect x="3195.5" y="8.8" class="st3" width="4.6" height="1.2"/>
		<rect x="3260.2" y="10.8" class="st3" width="2.1" height="1.2"/>
		<rect x="3245" y="7.2" class="st3" width="2.3" height="1.2"/>
		<rect x="3310.4" y="7.3" class="st3" width="2.1" height="1.2"/>
		<line class="st2" x1="3284.4" y1="9.5" x2="3282.3" y2="9.5"/>
		<rect x="3295.1" y="10.9" class="st3" width="2.3" height="1.2"/>
		<rect x="3278.9" y="8.5" class="st3" width="1.1" height="1.1"/>
		<rect x="3269.7" y="10.9" class="st3" width="4.6" height="1.2"/>
		<rect x="3320.6" y="9" class="st3" width="2.1" height="1.2"/>
		<rect x="3370.7" y="5.5" class="st3" width="2.1" height="1.2"/>
		<line class="st2" x1="3344.7" y1="7.7" x2="3342.7" y2="7.7"/>
		<rect x="3355.4" y="9.1" class="st3" width="2.3" height="1.2"/>
		<rect x="3339.2" y="6.7" class="st3" width="1.1" height="1.1"/>
		<rect x="3330.1" y="9.1" class="st3" width="4.6" height="1.2"/>
		<rect x="3394.8" y="12.1" class="st3" width="2.1" height="1.2"/>
		<rect x="3379.5" y="6.5" class="st3" width="2.3" height="1.2"/>
		<rect x="3444.9" y="7.6" class="st3" width="2.1" height="1.2"/>
		<line class="st2" x1="3418.9" y1="9.8" x2="3416.9" y2="9.8"/>
		<rect x="3429.6" y="11.3" class="st3" width="2.3" height="1.2"/>
		<rect x="3413.4" y="8.8" class="st3" width="1.1" height="1.1"/>
		<rect x="3404.3" y="11.3" class="st3" width="4.6" height="1.2"/>
		<rect x="3455.1" y="9.3" class="st3" width="2.1" height="1.2"/>
		<rect x="3505.2" y="5.9" class="st3" width="2.1" height="1.2"/>
		<line class="st2" x1="3479.2" y1="8.1" x2="3477.2" y2="8.1"/>
		<rect x="3490" y="9.5" class="st3" width="2.3" height="1.2"/>
		<rect x="3473.7" y="7.1" class="st3" width="1.1" height="1.1"/>
		<rect x="3464.6" y="9.5" class="st3" width="4.6" height="1.2"/>
		<rect x="3529.3" y="10.5" class="st3" width="2.1" height="1.2"/>
		<rect x="3514" y="6.8" class="st3" width="2.3" height="1.2"/>
		<rect x="3579.4" y="9" class="st3" width="2.1" height="1.2"/>
		<line class="st2" x1="3553.4" y1="9.2" x2="3551.4" y2="9.2"/>
		<rect x="3564.2" y="10.6" class="st3" width="2.3" height="1.2"/>
		<rect x="3547.9" y="8.2" class="st3" width="1.1" height="1.1"/>
		<rect x="3538.8" y="10.6" class="st3" width="4.6" height="1.2"/>
		<rect x="3589.6" y="8.7" class="st3" width="2.1" height="1.2"/>
		<line class="st2" x1="3613.8" y1="5.4" x2="3611.7" y2="5.4"/>
		<rect x="3624.5" y="8.8" class="st3" width="2.3" height="1.2"/>
		<rect x="3608.3" y="4.4" class="st3" width="1.1" height="1.1"/>
		<rect x="3599.1" y="8.8" class="st3" width="4.6" height="1.2"/>
		<rect x="3663.8" y="9.8" class="st3" width="2.1" height="1.2"/>
		<rect x="3648.5" y="4.2" class="st3" width="2.3" height="1.2"/>
		<rect x="3714" y="4.3" class="st3" width="2.1" height="1.2"/>
		<line class="st2" x1="3688" y1="8.5" x2="3685.9" y2="8.5"/>
		<rect x="3698.7" y="9.9" class="st3" width="2.3" height="1.2"/>
		<rect x="3682.5" y="7.5" class="st3" width="1.1" height="1.1"/>
		<rect x="3673.3" y="9.9" class="st3" width="4.6" height="1.2"/>
		<rect x="3724.1" y="11" class="st3" width="2.1" height="1.2"/>
		<line class="st2" x1="3748.3" y1="4.7" x2="3746.2" y2="4.7"/>
		<rect x="3759" y="9.2" class="st3" width="2.3" height="1.2"/>
		<rect x="3733.6" y="9.2" class="st3" width="4.6" height="1.2"/>
		<rect x="3798.3" y="11.1" class="st3" width="2.1" height="1.2"/>
		<line class="st2" x1="3822.5" y1="9.9" x2="3820.4" y2="9.9"/>
		<rect x="3833.2" y="11.3" class="st3" width="2.3" height="1.2"/>
		<rect x="3817" y="8.9" class="st3" width="1.1" height="1.1"/>
		<rect x="3807.8" y="11.3" class="st3" width="4.6" height="1.2"/>
		<rect x="3858.7" y="9.4" class="st3" width="2.1" height="1.2"/>
		<line class="st2" x1="3882.8" y1="4.1" x2="3880.8" y2="4.1"/>
		<rect x="3893.5" y="9.5" class="st3" width="2.3" height="1.2"/>
		<rect x="3868.2" y="9.5" class="st3" width="4.6" height="1.2"/>
		<rect x="3932.9" y="10.5" class="st3" width="2.1" height="1.2"/>
		<rect x="3983" y="12" class="st3" width="2.1" height="1.2"/>
		<line class="st2" x1="3957" y1="5.2" x2="3955" y2="5.2"/>
		<rect x="3967.7" y="7.6" class="st3" width="2.3" height="1.2"/>
		<rect x="3951.5" y="4.2" class="st3" width="1.1" height="1.1"/>
		<rect x="3942.4" y="10.6" class="st3" width="4.6" height="1.2"/>
		<rect x="3993.2" y="6.7" class="st3" width="2.1" height="1.2"/>
		<rect x="4043.3" y="10.2" class="st3" width="2.1" height="1.2"/>
		<line class="st2" x1="4017.3" y1="3.4" x2="4015.3" y2="3.4"/>
		<rect x="4028.1" y="6.8" class="st3" width="2.3" height="1.2"/>
		<rect x="4011.8" y="11.4" class="st3" width="1.1" height="1.1"/>
		<rect x="4002.7" y="6.8" class="st3" width="4.6" height="1.2"/>
		<rect x="4067.4" y="6.8" class="st3" width="2.1" height="1.2"/>
		<rect x="4052.1" y="11.2" class="st3" width="2.3" height="1.2"/>
		<rect x="4117.5" y="11.3" class="st3" width="2.1" height="1.2"/>
		<line class="st2" x1="4091.5" y1="4.5" x2="4089.5" y2="4.5"/>
		<rect x="4102.3" y="6.9" class="st3" width="2.3" height="1.2"/>
		<rect x="4086" y="7.5" class="st3" width="1.1" height="1.1"/>
		<rect x="4076.9" y="6.9" class="st3" width="4.6" height="1.2"/>
		<rect x="4127.7" y="4" class="st3" width="2.1" height="1.2"/>
		<rect x="4177.9" y="11.5" class="st3" width="2.1" height="1.2"/>
		<line class="st2" x1="4151.9" y1="11.8" x2="4149.8" y2="11.8"/>
		<rect x="4162.6" y="4.2" class="st3" width="2.3" height="1.2"/>
		<rect x="4146.4" y="10.8" class="st3" width="1.1" height="1.1"/>
		<rect x="4201.9" y="8.1" class="st3" width="2.1" height="1.2"/>
		<rect x="4186.6" y="12.5" class="st3" width="2.3" height="1.2"/>
		<rect x="4252.1" y="9.7" class="st3" width="2.1" height="1.2"/>
		<line class="st2" x1="4226.1" y1="3.9" x2="4224" y2="3.9"/>
		<rect x="4236.8" y="8.3" class="st3" width="2.3" height="1.2"/>
		<rect x="4220.6" y="10.9" class="st3" width="1.1" height="1.1"/>
		<rect x="4211.4" y="7.3" class="st3" width="4.6" height="1.2"/>
		<rect x="4262.2" y="6.4" class="st3" width="2.1" height="1.2"/>
		<rect x="4312.4" y="7.9" class="st3" width="2.1" height="1.2"/>
		<line class="st2" x1="4286.4" y1="10.1" x2="4284.3" y2="10.1"/>
		<rect x="4297.1" y="7.5" class="st3" width="2.3" height="1.2"/>
		<rect x="4280.9" y="9.1" class="st3" width="1.1" height="1.1"/>
		<rect x="4271.7" y="7.5" class="st3" width="4.6" height="1.2"/>
		<rect x="4336.4" y="7.5" class="st3" width="2.1" height="1.2"/>
		<rect x="4321.2" y="8.9" class="st3" width="2.3" height="1.2"/>
		<rect x="4386.6" y="9" class="st3" width="2.1" height="1.2"/>
		<line class="st2" x1="4360.6" y1="3.2" x2="4358.5" y2="3.2"/>
		<rect x="4371.3" y="7.6" class="st3" width="2.3" height="1.2"/>
		<rect x="4355.1" y="10.2" class="st3" width="1.1" height="1.1"/>
		<rect x="4345.9" y="7.6" class="st3" width="4.6" height="1.2"/>
		<rect x="4396.8" y="10.7" class="st3" width="2.1" height="1.2"/>
		<rect x="4446.9" y="7.2" class="st3" width="2.1" height="1.2"/>
		<line class="st2" x1="4420.9" y1="9.4" x2="4418.9" y2="9.4"/>
		<rect x="4431.6" y="10.8" class="st3" width="2.3" height="1.2"/>
		<rect x="4415.4" y="8.4" class="st3" width="1.1" height="1.1"/>
		<rect x="4406.3" y="10.8" class="st3" width="4.6" height="1.2"/>
		<rect x="4471" y="7.8" class="st3" width="2.1" height="1.2"/>
		<rect x="4455.7" y="8.2" class="st3" width="2.3" height="1.2"/>
		<rect x="4521.1" y="8.3" class="st3" width="2.1" height="1.2"/>
		<line class="st2" x1="4495.1" y1="10.5" x2="4493.1" y2="10.5"/>
		<rect x="4505.8" y="4" class="st3" width="2.3" height="1.2"/>
		<rect x="4489.6" y="9.6" class="st3" width="1.1" height="1.1"/>
		<rect x="4480.5" y="4" class="st3" width="4.6" height="1.2"/>
		<rect x="2344.8" y="9.4" class="st3" width="1.1" height="1.1"/>
		<rect x="2335.7" y="7" class="st3" width="4.6" height="1.2"/>
		<line class="st2" x1="2400.6" y1="21.8" x2="2402.4" y2="21.8"/>
	</g>
</g>
</svg>
