<svg xmlns="http://www.w3.org/2000/svg" viewBox="0 0 129.26 112.68"><defs><style>.cls-1{fill:#555;}.cls-2{fill:#fafafa;}</style></defs><title>reload-btn</title><g id="Layer_2" data-name="Layer 2"><g id="Layer_1-2" data-name="Layer 1"><polygon class="cls-1" points="0 105.22 4.17 105.22 4.17 109.51 8.37 109.51 8.37 112.69 120.61 112.69 120.61 108.95 123.22 108.95 123.22 106.89 125.86 106.95 125.86 104.4 129.26 104.4 129.26 8.63 127.23 8.63 127.2 6.26 125.41 6.26 125.32 3.22 121.19 3.22 121.25 0 8.61 0 8.58 3.65 4.48 3.59 4.51 5.99 2.69 6.05 2.71 8.42 0 8.42 0 105.22"/><polyline class="cls-2" points="99.84 77.89 104.2 77.89 104.2 36.45 99.92 36.45 99.92 32.17 95.76 32.17 95.76 28.03 80.72 28.03 80.75 44.28 89.78 44.28 89.78 70.65 50.02 70.62 38.16 70.68 38.13 44.28 50.02 44.28 50.02 54.3 56.72 54.27 56.72 52.04 61.63 52.06 61.55 48.56 64.54 48.56 64.54 43.04 69.35 43.06 69.32 40.02 72.31 40.05 72.31 32.17 69.29 32.17 69.29 28.03 64.63 28.03 64.63 24.93 61.47 24.93 61.47 20.8 58.59 20.8 58.59 16.81 50.02 16.81 50.02 28.03 32.74 28.03 32.74 32.17 28.16 32.17 28.16 36.45 25.06 36.45 25.06 78.5 28.16 78.5 28.16 82.67 32.74 82.67 32.74 85.8 95.73 85.55 95.73 82.78 98.69 82.78 98.69 82.05 99.84 82.05 99.84 77.89"/></g></g></svg>